<?xml version="1.0" encoding="UTF-8" standalone="no"?>
<!DOCTYPE svg PUBLIC "-//W3C//DTD SVG 1.1//EN" "http://www.w3.org/Graphics/SVG/1.1/DTD/svg11.dtd">
<svg width="100%" height="100%" viewBox="0 0 501 148" version="1.1" xmlns="http://www.w3.org/2000/svg" xmlns:xlink="http://www.w3.org/1999/xlink" xml:space="preserve" xmlns:serif="http://www.serif.com/" style="fill-rule:evenodd;clip-rule:evenodd;stroke-linejoin:round;stroke-miterlimit:2;">
    <g id="Artboard1" transform="matrix(1,0,0,1,-33.8251,-29.049)">
        <rect x="33.825" y="29.049" width="500.963" height="147.988" style="fill:none;"/>
        <clipPath id="_clip1">
            <rect x="33.825" y="29.049" width="500.963" height="147.988"/>
        </clipPath>
        <g clip-path="url(#_clip1)">
            <g transform="matrix(1,0,0,1,0.8251,0.049)">
                <g transform="matrix(-1,0,0,1,291.108,128.751)">
                    <rect x="47.77" y="38.267" width="195.568" height="2.715"/>
                </g>
                <g transform="matrix(-1,0,0,1,669.264,128.751)">
                    <rect x="296.192" y="38.267" width="76.88" height="2.715"/>
                </g>
                <g transform="matrix(1,0,0,1,390.309,165.169)">
                    <path d="M0,3.85C-1.632,5.603 -3.224,6.483 -4.749,6.483C-6.176,6.483 -6.9,5.81 -6.914,4.456C-6.914,4.07 -6.807,3.375 -6.598,2.368C-7.753,3.647 -8.512,4.456 -8.855,4.809C-10.033,5.921 -10.952,6.483 -11.61,6.483C-11.913,6.483 -12.181,6.364 -12.399,6.119C-12.625,5.876 -12.736,5.603 -12.736,5.3C-12.736,4.448 -12.509,3.329 -12.065,1.936C-12.009,1.786 -11.89,1.445 -11.691,0.94C-11.504,0.43 -11.238,-0.27 -10.912,-1.159L-12.358,-0.752C-12.475,-0.752 -12.533,-0.916 -12.533,-1.251C-9.713,-2.094 -8.307,-2.54 -8.307,-2.577C-8.267,-2.54 -8.22,-2.422 -8.16,-2.233C-8.622,-1.724 -9.201,-0.676 -9.896,0.923C-10.592,2.525 -10.94,3.632 -10.94,4.252C-10.94,4.754 -10.735,5.004 -10.332,5.004C-9.695,5.004 -8.682,4.031 -7.293,2.079C-6.786,1.388 -6.347,0.717 -5.942,0.087C-5.552,-0.55 -5.196,-1.159 -4.894,-1.737C-4.637,-1.812 -4.344,-1.931 -4.006,-2.083C-3.675,-2.24 -3.282,-2.422 -2.835,-2.633C-2.698,-2.382 -2.629,-2.27 -2.629,-2.283C-4.347,0.763 -5.21,2.867 -5.21,4.021C-5.21,4.463 -5.057,4.827 -4.749,5.111C-4.435,5.391 -4.064,5.526 -3.616,5.526C-2.442,5.526 -1.391,4.815 -0.466,3.381C0.349,2.143 0.755,1.002 0.755,-0.06C0.755,-0.346 0.657,-0.635 0.482,-0.932C0.289,-1.216 0.067,-1.334 -0.203,-1.275C-0.496,-1.216 -0.677,-1.216 -0.756,-1.275C-0.791,-1.312 -0.814,-1.4 -0.814,-1.537C-0.814,-1.708 -0.565,-1.899 -0.061,-2.118C0.349,-2.306 0.675,-2.402 0.927,-2.402C1.333,-2.402 1.69,-2.28 2.017,-2.039C2.331,-1.801 2.488,-1.49 2.488,-1.097C2.488,0.419 1.657,2.071 0,3.85" style="fill-rule:nonzero;"/>
                </g>
                <g transform="matrix(1,0,0,1,398.661,169.452)">
                    <path d="M0,-9.429C-0.51,-9.082 -1.162,-8.918 -1.972,-8.918C-2.03,-9.032 -2.06,-9.114 -2.06,-9.178C-1.609,-9.429 -1.315,-9.684 -1.162,-9.956C-1.022,-10.166 -0.949,-10.575 -0.932,-11.166C-0.868,-11.166 -0.771,-11.196 -0.634,-11.241C-0.51,-11.286 -0.357,-11.345 -0.204,-11.402C-0.049,-11.459 0.102,-11.515 0.245,-11.562C0.391,-11.605 0.519,-11.63 0.634,-11.63C0.812,-11.63 0.895,-11.487 0.895,-11.202C0.895,-10.431 0.597,-9.844 0,-9.429M-2.06,0.988C-1.923,0.988 -1.458,0.661 -0.671,0.03C-0.473,0.03 -0.382,0.134 -0.382,0.342L-2.17,1.741C-2.589,2.047 -3.015,2.201 -3.418,2.201C-3.689,2.201 -3.925,2.068 -4.112,1.809C-4.303,1.55 -4.398,1.284 -4.398,1.018C-4.398,0.03 -3.786,-2.03 -2.552,-5.149L-3.705,-4.865C-3.862,-4.865 -3.938,-5.016 -3.938,-5.323C-3.551,-5.405 -2.854,-5.656 -1.854,-6.079C-0.868,-6.482 -0.338,-6.684 -0.261,-6.684C-0.115,-6.684 -0.039,-6.593 -0.039,-6.426C-0.338,-5.965 -0.827,-4.865 -1.48,-3.128C-2.21,-1.217 -2.575,-0.046 -2.575,0.374C-2.575,0.78 -2.405,0.988 -2.06,0.988" style="fill-rule:nonzero;"/>
                </g>
                <g transform="matrix(1,0,0,1,408.496,166.621)">
                    <path d="M0,1.12C-0.111,1.431 -0.262,1.796 -0.432,2.219C-0.605,2.643 -0.802,3.139 -1.016,3.7C-0.859,3.662 -0.648,3.616 -0.388,3.569C-0.125,3.52 0.173,3.456 0.521,3.385C0.582,3.385 0.635,3.547 0.693,3.876C-0.173,4.009 -0.921,4.172 -1.549,4.365C-2.172,4.557 -2.709,4.783 -3.15,5.031C-3.189,5.007 -3.241,4.984 -3.298,4.96C-3.358,4.926 -3.431,4.89 -3.532,4.858C-2.758,3.467 -2.125,2.086 -1.617,0.713C-1.141,-0.553 -0.899,-1.427 -0.899,-1.887C-0.899,-2.484 -1.099,-2.785 -1.505,-2.785C-1.984,-2.785 -2.884,-1.959 -4.199,-0.298C-5.352,1.173 -6.349,2.643 -7.177,4.138C-7.364,4.216 -7.632,4.323 -7.956,4.484C-8.287,4.638 -8.683,4.819 -9.145,5.031C-9.145,4.739 -8.987,4.172 -8.683,3.32L-7.703,0.713C-7.23,-0.534 -6.95,-1.615 -6.83,-2.524C-6.961,-2.484 -7.142,-2.429 -7.359,-2.353C-7.587,-2.273 -7.859,-2.166 -8.194,-2.034C-8.322,-2.186 -8.386,-2.33 -8.386,-2.471C-6.765,-2.974 -5.698,-3.45 -5.178,-3.911C-4.95,-3.911 -4.834,-3.854 -4.834,-3.734C-4.868,-3.412 -4.944,-3.02 -5.049,-2.568C-5.153,-2.115 -5.301,-1.607 -5.503,-1.045C-5.847,0.084 -6.018,0.877 -6.018,1.297C-5.301,0.297 -4.669,-0.576 -4.109,-1.308C-2.82,-2.988 -1.522,-3.834 -0.229,-3.854C0.484,-3.874 0.84,-3.47 0.84,-2.636C0.84,-1.693 0.554,-0.441 0,1.12" style="fill-rule:nonzero;"/>
                </g>
                <g transform="matrix(1,0,0,1,415.773,170.933)">
                    <path d="M0,-7.447C-0.695,-7.447 -1.34,-6.948 -1.946,-5.963C-2.495,-5.06 -2.776,-4.254 -2.776,-3.539C-2.398,-3.539 -1.691,-3.828 -0.665,-4.407C-0.304,-4.6 0.046,-4.933 0.374,-5.417C0.758,-5.977 0.922,-6.431 0.868,-6.783C0.806,-7.219 0.516,-7.447 0,-7.447M0.607,-4.089C0.046,-3.775 -0.528,-3.515 -1.113,-3.289C-1.706,-3.071 -2.328,-2.881 -2.987,-2.729C-2.987,-2.433 -2.919,-2.153 -2.776,-1.873C-2.643,-1.59 -2.475,-1.352 -2.266,-1.155C-2.047,-0.943 -1.798,-0.779 -1.506,-0.653C-1.215,-0.528 -0.928,-0.464 -0.637,-0.464C-0.061,-0.464 0.479,-0.612 0.986,-0.902C1.098,-0.943 1.364,-1.108 1.787,-1.392C2.039,-1.551 2.217,-1.63 2.316,-1.63C2.504,-1.63 2.601,-1.551 2.601,-1.392C2.601,-1.261 2.445,-1.065 2.142,-0.821C0.827,0.208 -0.528,0.719 -1.946,0.719C-2.748,0.719 -3.432,0.46 -3.998,-0.048C-4.557,-0.561 -4.834,-1.225 -4.834,-2.027C-4.834,-3.711 -4.135,-5.192 -2.722,-6.458C-1.473,-7.598 -0.215,-8.166 1.037,-8.166C2.316,-8.166 2.95,-7.704 2.95,-6.783C2.95,-5.813 2.166,-4.921 0.607,-4.089" style="fill-rule:nonzero;"/>
                </g>
                <g transform="matrix(1,0,0,1,433.269,165.473)">
                    <path d="M0,0.657C-0.328,0.657 -0.636,0.723 -0.934,0.873C-1.226,1.015 -1.522,1.159 -1.811,1.311C-1.838,1.319 -1.888,1.326 -1.974,1.326C-1.916,1.195 -1.79,1.033 -1.604,0.843C-1.408,0.659 -1.175,0.446 -0.866,0.205C-0.555,-0.04 -0.253,-0.18 0.039,-0.23C0.104,-0.244 0.222,-0.253 0.385,-0.26C0.557,-0.266 0.754,-0.266 0.997,-0.266L3.239,-0.266C3.285,-0.266 3.371,-0.295 3.491,-0.34C3.611,-0.395 3.694,-0.417 3.744,-0.417C3.85,-0.417 3.904,-0.373 3.904,-0.291C3.904,-0.043 3.71,0.178 3.31,0.4C2.898,0.614 2.568,0.721 2.33,0.707L2.222,0.707C2.178,0.707 2.109,0.701 2.02,0.691L1.638,0.691C1.638,2.005 1.073,3.268 -0.055,4.468C-1.447,5.931 -3.243,6.66 -5.459,6.66C-6.754,6.66 -7.729,6.528 -8.375,6.261C-9.374,5.866 -9.873,5.128 -9.873,4.056C-9.873,3.004 -9.14,2.017 -7.652,1.091C-6.607,0.421 -5.516,-0.049 -4.382,-0.34C-5.301,-0.617 -5.892,-0.834 -6.186,-0.991C-6.84,-1.363 -7.17,-1.868 -7.17,-2.494C-7.17,-3.545 -6.482,-4.424 -5.119,-5.135C-3.974,-5.703 -2.826,-5.993 -1.666,-6.003C-1.157,-6.003 -0.688,-5.92 -0.253,-5.746C0.304,-5.527 0.577,-5.177 0.577,-4.712C0.577,-4.429 0.459,-4.182 0.215,-3.976C-0.022,-3.773 -0.295,-3.67 -0.602,-3.67C-0.848,-3.67 -1.057,-3.767 -1.213,-3.935C-0.96,-4.203 -0.832,-4.45 -0.832,-4.664C-0.832,-4.944 -1.07,-5.169 -1.535,-5.331C-1.863,-5.45 -2.212,-5.519 -2.588,-5.519C-3.311,-5.519 -4.04,-5.27 -4.778,-4.789C-5.609,-4.261 -6.024,-3.657 -6.024,-2.983C-6.024,-2.437 -5.643,-2.032 -4.866,-1.764C-4.479,-1.637 -3.683,-1.466 -2.463,-1.266C-2.343,-1.252 -2.279,-1.179 -2.279,-1.045C-2.279,-0.936 -2.567,-0.693 -3.138,-0.306C-4.133,-0.145 -5.147,0.249 -6.168,0.873C-7.641,1.774 -8.388,2.9 -8.412,4.233C-8.438,4.85 -8.08,5.36 -7.331,5.754C-6.741,6.079 -6.098,6.247 -5.41,6.247C-3.623,6.247 -2.084,5.667 -0.799,4.512C0.314,3.472 0.87,2.417 0.87,1.343C0.87,0.884 0.577,0.657 0,0.657" style="fill-rule:nonzero;"/>
                </g>
                <g transform="matrix(1,0,0,1,450.071,165.394)">
                    <path d="M0,3.48C-1.542,5.333 -3.433,6.258 -5.672,6.258C-6.25,6.258 -6.751,6.111 -7.175,5.827C-7.595,5.53 -7.81,5.11 -7.81,4.547C-7.81,3.717 -7.506,2.552 -6.883,1.05C-6.802,0.778 -6.65,0.453 -6.483,0.059C-6.305,-0.322 -6.111,-0.783 -5.871,-1.322L-7.151,-1.125C-7.279,-1.125 -7.353,-1.296 -7.353,-1.64C-5.54,-1.932 -4.194,-2.307 -3.322,-2.778C-3.213,-2.778 -3.154,-2.684 -3.154,-2.507C-3.135,-2.432 -3.218,-2.25 -3.413,-1.961C-3.588,-1.714 -3.749,-1.479 -3.894,-1.256C-4.038,-1.034 -4.162,-0.814 -4.282,-0.602C-4.439,-0.331 -4.602,0.01 -4.771,0.429C-4.955,0.841 -5.141,1.311 -5.347,1.855C-5.773,3.055 -5.99,3.91 -5.99,4.431C-5.99,4.78 -5.845,5.076 -5.54,5.301C-5.243,5.53 -4.915,5.646 -4.571,5.646C-3.397,5.646 -2.317,5.026 -1.333,3.796C-0.386,2.621 0.074,1.435 0.061,0.237C0.061,-0.092 -0.03,-0.423 -0.218,-0.775C-0.4,-1.125 -0.65,-1.296 -0.954,-1.296C-0.994,-1.296 -1.085,-1.28 -1.246,-1.244C-1.436,-1.184 -1.531,-1.265 -1.531,-1.499C-1.531,-1.768 -1.339,-2.037 -0.954,-2.307C-0.628,-2.523 -0.293,-2.626 0.033,-2.626C1.208,-2.647 1.794,-1.917 1.794,-0.454C1.794,0.683 1.191,1.996 0,3.48" style="fill-rule:nonzero;"/>
                </g>
                <g transform="matrix(1,0,0,1,457.774,169.452)">
                    <path d="M0,-9.429C-0.499,-9.082 -1.149,-8.918 -1.967,-8.918C-2.021,-9.032 -2.054,-9.114 -2.054,-9.178C-1.612,-9.429 -1.308,-9.684 -1.149,-9.956C-1.017,-10.166 -0.94,-10.575 -0.928,-11.166C-0.862,-11.166 -0.767,-11.196 -0.638,-11.241C-0.499,-11.286 -0.359,-11.345 -0.195,-11.402C-0.041,-11.459 0.104,-11.515 0.248,-11.562C0.391,-11.605 0.519,-11.63 0.641,-11.63C0.815,-11.63 0.892,-11.487 0.892,-11.202C0.892,-10.431 0.6,-9.844 0,-9.429M-2.054,0.988C-1.918,0.988 -1.454,0.661 -0.666,0.03C-0.475,0.03 -0.377,0.134 -0.377,0.342L-2.168,1.741C-2.588,2.047 -3.008,2.201 -3.415,2.201C-3.685,2.201 -3.918,2.068 -4.104,1.809C-4.307,1.55 -4.393,1.284 -4.393,1.018C-4.393,0.03 -3.777,-2.03 -2.545,-5.149L-3.702,-4.865C-3.858,-4.865 -3.934,-5.016 -3.934,-5.323C-3.548,-5.405 -2.856,-5.656 -1.851,-6.079C-0.862,-6.482 -0.335,-6.684 -0.263,-6.684C-0.106,-6.684 -0.025,-6.593 -0.025,-6.426C-0.335,-5.965 -0.822,-4.865 -1.478,-3.128C-2.212,-1.217 -2.573,-0.046 -2.573,0.374C-2.573,0.78 -2.398,0.988 -2.054,0.988" style="fill-rule:nonzero;"/>
                </g>
                <g transform="matrix(1,0,0,1,467.613,166.621)">
                    <path d="M0,1.12C-0.113,1.431 -0.259,1.796 -0.432,2.219C-0.608,2.643 -0.798,3.139 -1.014,3.7C-0.858,3.662 -0.646,3.616 -0.393,3.569C-0.126,3.52 0.174,3.456 0.518,3.385C0.582,3.385 0.634,3.547 0.697,3.876C-0.171,4.009 -0.923,4.172 -1.547,4.365C-2.177,4.557 -2.708,4.783 -3.153,5.031C-3.188,5.007 -3.238,4.984 -3.296,4.96C-3.355,4.926 -3.433,4.89 -3.532,4.858C-2.756,3.467 -2.119,2.086 -1.619,0.713C-1.137,-0.553 -0.895,-1.427 -0.895,-1.887C-0.895,-2.484 -1.093,-2.785 -1.495,-2.785C-1.989,-2.785 -2.883,-1.959 -4.197,-0.298C-5.352,1.173 -6.34,2.643 -7.175,4.138C-7.369,4.216 -7.629,4.323 -7.957,4.484C-8.287,4.638 -8.68,4.819 -9.142,5.031C-9.142,4.739 -8.993,4.172 -8.68,3.32L-7.702,0.713C-7.232,-0.534 -6.944,-1.615 -6.828,-2.524C-6.957,-2.484 -7.146,-2.429 -7.361,-2.353C-7.58,-2.273 -7.859,-2.166 -8.184,-2.034C-8.327,-2.186 -8.393,-2.33 -8.393,-2.471C-6.771,-2.974 -5.693,-3.45 -5.182,-3.911C-4.95,-3.911 -4.829,-3.854 -4.829,-3.734C-4.865,-3.412 -4.948,-3.02 -5.05,-2.568C-5.152,-2.115 -5.306,-1.607 -5.497,-1.045C-5.843,0.084 -6.019,0.877 -6.019,1.297C-5.306,0.297 -4.673,-0.576 -4.107,-1.308C-2.819,-2.988 -1.523,-3.834 -0.228,-3.854C0.482,-3.874 0.841,-3.47 0.841,-2.636C0.841,-1.693 0.559,-0.441 0,1.12" style="fill-rule:nonzero;"/>
                </g>
                <g transform="matrix(1,0,0,1,474.885,170.933)">
                    <path d="M0,-7.447C-0.684,-7.447 -1.333,-6.948 -1.936,-5.963C-2.492,-5.06 -2.774,-4.254 -2.774,-3.539C-2.389,-3.539 -1.682,-3.828 -0.661,-4.407C-0.297,-4.6 0.052,-4.933 0.379,-5.417C0.765,-5.977 0.929,-6.431 0.874,-6.783C0.816,-7.219 0.52,-7.447 0,-7.447M0.611,-4.089C0.052,-3.775 -0.524,-3.515 -1.115,-3.289C-1.699,-3.071 -2.324,-2.881 -2.98,-2.729C-2.98,-2.433 -2.908,-2.153 -2.774,-1.873C-2.633,-1.59 -2.464,-1.352 -2.258,-1.155C-2.044,-0.943 -1.793,-0.779 -1.5,-0.653C-1.21,-0.528 -0.922,-0.464 -0.633,-0.464C-0.053,-0.464 0.488,-0.612 0.985,-0.902C1.106,-0.943 1.373,-1.108 1.795,-1.392C2.049,-1.551 2.218,-1.63 2.32,-1.63C2.508,-1.63 2.609,-1.551 2.609,-1.392C2.609,-1.261 2.451,-1.065 2.146,-0.821C0.834,0.208 -0.528,0.719 -1.936,0.719C-2.743,0.719 -3.429,0.46 -3.988,-0.048C-4.549,-0.561 -4.828,-1.225 -4.828,-2.027C-4.828,-3.711 -4.124,-5.192 -2.716,-6.458C-1.467,-7.598 -0.211,-8.166 1.043,-8.166C2.32,-8.166 2.957,-7.704 2.957,-6.783C2.957,-5.813 2.176,-4.921 0.611,-4.089" style="fill-rule:nonzero;"/>
                </g>
                <g transform="matrix(1,0,0,1,488.472,174.788)">
                    <path d="M0,-9.771C-0.71,-5.655 -1.911,-2.532 -3.585,-0.389C-4.948,1.37 -6.379,2.249 -7.903,2.249C-8.329,2.249 -8.675,2.149 -8.943,1.959C-9.288,1.721 -9.462,1.413 -9.462,1.031C-9.462,0.723 -9.314,0.427 -9.018,0.148C-8.716,-0.129 -8.419,-0.271 -8.103,-0.271C-7.909,-0.271 -7.741,-0.18 -7.583,-0.006C-7.617,0.182 -7.639,0.329 -7.639,0.422C-7.639,1.002 -7.325,1.29 -6.684,1.29C-5.57,1.29 -4.512,-0.048 -3.498,-2.729C-2.772,-4.654 -2.294,-6.468 -2.08,-8.177C-2.45,-7.616 -2.872,-7.063 -3.346,-6.525C-3.816,-5.986 -4.334,-5.449 -4.892,-4.93C-6.205,-3.737 -7.279,-3.135 -8.138,-3.135C-8.891,-3.135 -9.266,-3.673 -9.266,-4.756C-9.266,-5.176 -8.953,-6.207 -8.337,-7.829C-7.717,-9.449 -7.412,-10.321 -7.412,-10.455C-7.681,-10.397 -7.996,-10.312 -8.362,-10.201C-8.535,-10.201 -8.629,-10.343 -8.629,-10.637C-7.931,-10.83 -6.684,-11.292 -4.892,-12.02C-4.776,-12.02 -4.725,-11.939 -4.725,-11.791C-4.725,-11.655 -5.261,-10.561 -6.338,-8.489C-7.091,-7.063 -7.461,-5.905 -7.436,-5.017C-7.436,-4.556 -7.237,-4.318 -6.83,-4.318C-6.27,-4.318 -5.299,-5.08 -3.903,-6.583C-3.14,-7.406 -2.585,-8.12 -2.261,-8.719C-1.894,-9.321 -1.583,-10.149 -1.331,-11.213C-1.181,-11.305 -0.983,-11.43 -0.769,-11.577C-0.543,-11.718 -0.274,-11.866 0.051,-12.02C0.309,-12.02 0.435,-11.901 0.435,-11.675C0.33,-11.292 0.195,-10.65 0,-9.771" style="fill-rule:nonzero;"/>
                </g>
                <g transform="matrix(1,0,0,1,497.215,170.874)">
                    <path d="M0,-7.214C-1.293,-7.214 -2.487,-6.702 -3.558,-5.68C-4.642,-4.651 -5.18,-3.506 -5.18,-2.231C-5.18,-1.368 -4.8,-0.933 -4.024,-0.933C-2.424,-0.933 -0.646,-2.83 1.298,-6.637C1.298,-7.017 0.865,-7.214 0,-7.214M1.329,-0.985C1.329,-0.662 1.479,-0.5 1.761,-0.5C1.858,-0.5 2.062,-0.591 2.371,-0.786C2.672,-0.979 2.91,-1.08 3.071,-1.08C3.252,-1.08 3.358,-0.969 3.358,-0.762C3.358,-0.621 2.974,-0.321 2.227,0.136C1.375,0.637 0.854,0.893 0.663,0.893C-0.148,0.893 -0.553,0.393 -0.553,-0.612C-0.553,-1.29 -0.475,-1.982 -0.323,-2.697C-0.402,-2.697 -0.68,-2.398 -1.159,-1.804C-2.649,-0.081 -4.006,0.778 -5.238,0.778C-5.8,0.778 -6.267,0.598 -6.63,0.231C-6.993,-0.139 -7.179,-0.601 -7.179,-1.166C-7.216,-2.989 -6.267,-4.637 -4.311,-6.082C-2.561,-7.429 -0.729,-8.107 1.187,-8.107C2.784,-8.107 3.604,-7.912 3.643,-7.531C2.103,-3.981 1.329,-1.804 1.329,-0.985" style="fill-rule:nonzero;"/>
                </g>
                <g transform="matrix(1,0,0,1,508.659,168.731)">
                    <path d="M0,-3.1C-0.325,-2.638 -0.615,-2.408 -0.868,-2.408C-0.908,-2.408 -0.99,-2.638 -1.129,-3.1C-1.24,-3.564 -1.418,-3.791 -1.652,-3.791C-1.818,-3.791 -2.179,-3.406 -2.719,-2.638C-2.811,-2.519 -2.996,-2.258 -3.257,-1.84C-3.511,-1.429 -3.87,-0.846 -4.311,-0.115C-4.403,0.034 -4.491,0.216 -4.557,0.417C-4.624,0.619 -4.684,0.823 -4.747,1.025C-4.805,1.221 -4.853,1.423 -4.89,1.603C-4.929,1.787 -4.972,1.912 -5.005,1.996C-5.041,2.055 -5.612,2.36 -6.714,2.921C-6.79,2.921 -6.832,2.847 -6.832,2.69C-6.832,2.474 -6.505,1.193 -5.871,-1.162C-5.776,-1.561 -5.636,-2.051 -5.47,-2.607C-5.288,-3.162 -5.093,-3.81 -4.859,-4.542C-5.326,-4.355 -5.845,-4.229 -6.419,-4.167L-6.398,-4.602C-6.009,-4.602 -4.812,-5.083 -2.805,-6.021C-2.671,-6.021 -2.601,-5.926 -2.601,-5.734C-2.663,-5.522 -2.775,-5.213 -2.936,-4.812C-3.101,-4.398 -3.314,-3.892 -3.587,-3.278C-3.782,-2.833 -3.942,-2.405 -4.075,-1.991C-4.218,-1.569 -4.328,-1.162 -4.422,-0.761L-1.729,-4.659C-1.639,-4.8 -1.531,-4.958 -1.405,-5.135C-1.28,-5.318 -1.119,-5.548 -0.927,-5.823C-0.868,-5.917 -0.77,-5.963 -0.639,-5.963C-0.464,-5.963 -0.232,-5.722 0.061,-5.245C0.369,-4.754 0.522,-4.419 0.522,-4.229C0.522,-3.961 0.347,-3.585 0,-3.1" style="fill-rule:nonzero;"/>
                </g>
                <g transform="matrix(1,0,0,1,516.554,160.393)">
                    <path d="M0,3.155C-1.251,3.155 -2.405,3.705 -3.447,4.801C-4.489,5.883 -5.006,7.06 -5.006,8.334C-5.006,9.26 -4.625,9.72 -3.856,9.72C-2.542,9.72 -1.025,8.282 0.687,5.376C1.274,4.438 1.561,3.888 1.561,3.736C1.561,3.348 1.036,3.155 0,3.155M5.758,-4.225C5.35,-2.277 4.999,-0.875 4.715,-0.024L1.301,10.047C1.301,10.175 1.405,10.247 1.616,10.247C1.674,10.247 2.068,10.051 2.81,9.667C3.518,9.26 3.892,9.057 3.938,9.057C4.123,9.057 4.224,9.218 4.224,9.524C2.039,10.722 0.713,11.316 0.226,11.316C-0.35,11.316 -0.634,11.035 -0.634,10.477C-0.634,10.325 -0.544,9.897 -0.35,9.208C-0.252,8.818 -0.173,8.507 -0.106,8.266C-0.033,8.02 0.006,7.833 0.028,7.699C-0.662,8.433 -1.232,9.017 -1.663,9.46C-2.097,9.888 -2.405,10.175 -2.581,10.334C-3.373,10.951 -4.143,11.259 -4.896,11.259C-5.43,11.259 -5.902,11.103 -6.294,10.778C-6.69,10.464 -6.893,10.027 -6.893,9.496C-6.893,7.87 -6.046,6.275 -4.339,4.717C-2.646,3.155 -0.975,2.375 0.662,2.375C0.992,2.375 1.434,2.426 1.999,2.544C2.208,1.929 2.443,1.22 2.686,0.41C2.941,-0.411 3.22,-1.31 3.534,-2.317C4.111,-4.245 4.402,-5.716 4.402,-6.715C4.283,-6.676 4.019,-6.588 3.609,-6.453C3.213,-6.3 2.975,-6.227 2.92,-6.227C2.764,-6.227 2.686,-6.375 2.686,-6.688C2.959,-6.762 3.267,-6.878 3.623,-7.027C3.989,-7.187 4.389,-7.373 4.831,-7.585C5.642,-7.966 6.082,-8.161 6.165,-8.161C6.277,-8.161 6.335,-7.914 6.335,-7.408C6.335,-7.158 6.142,-6.097 5.758,-4.225" style="fill-rule:nonzero;"/>
                </g>
                <g transform="matrix(1,0,0,1,528.367,162.507)">
                    <path d="M0,7.755C-0.924,8.686 -2.035,9.146 -3.326,9.146C-4.041,9.146 -4.665,8.998 -5.203,8.714C-5.883,8.33 -6.224,7.815 -6.224,7.178C-6.259,6.001 -5.94,5.042 -5.266,4.314C-4.999,4.194 -4.712,4.067 -4.417,3.921C-4.111,3.776 -3.796,3.617 -3.471,3.443C-3.357,3.482 -3.3,3.548 -3.3,3.651C-3.3,3.839 -3.442,4.153 -3.732,4.575C-4.298,5.402 -4.572,6.249 -4.572,7.094C-4.572,8.133 -4.016,8.645 -2.893,8.625C-2.161,8.625 -1.537,8.29 -1.01,7.641C-0.553,7.039 -0.321,6.357 -0.321,5.585C-0.321,4.773 -0.733,3.501 -1.562,1.762C-1.779,1.899 -2.016,2.04 -2.297,2.191C-2.574,2.327 -2.904,2.487 -3.271,2.66C-3.35,2.66 -3.424,2.539 -3.506,2.285C-3.271,2.152 -2.975,1.993 -2.621,1.805C-2.264,1.629 -1.831,1.394 -1.329,1.126C-1.16,0.702 -0.836,0.209 -0.379,-0.345C0.166,-1.042 0.601,-1.391 0.926,-1.391C1.216,-1.391 1.363,-1.246 1.363,-0.956C1.263,-0.321 0.891,0.269 0.235,0.813C1.018,2.722 1.414,3.929 1.414,4.433C1.414,5.719 0.949,6.832 0,7.755" style="fill-rule:nonzero;"/>
                </g>
                <g transform="matrix(1,0,0,1,371.047,104.305)">
                    <path d="M0,13.497L-0.392,13.497C-0.72,11.361 -2.076,9.693 -3.936,8.512C-5.78,7.311 -6.634,7.369 -8.364,7.268C-13.533,6.938 -21.178,6.81 -31.275,6.898C-32.011,6.898 -32.383,7.183 -32.383,7.76L-32.383,33.99C-32.383,37.689 -30.21,39.985 -25.848,40.887C-24.779,41.056 -21.051,41.134 -14.641,41.134C-11.686,41.134 -9.058,40.849 -6.762,40.274C-1.838,38.881 1.8,37.343 4.139,35.658C6.477,33.974 7.984,32.071 8.639,29.926L8.764,30.055L6.301,45.939L6.178,46.68L5.184,46.559C4.609,46.637 3.742,46.68 2.597,46.68C-3.635,46.351 -11.603,46.188 -21.295,46.188C-28.355,46.188 -37.844,46.232 -49.746,46.314L-49.746,46.188C-47.619,45.86 -45.951,44.776 -44.76,42.923C-43.575,41.077 -42.974,38.515 -42.974,35.226L-42.852,-20.941L-42.974,-20.941L-42.974,-21.066C-42.974,-24.35 -43.575,-26.915 -44.76,-28.761C-45.951,-30.607 -47.619,-31.696 -49.746,-32.026L-49.746,-32.145L-27.204,-32.274C-21.131,-32.274 -15.496,-32.354 -10.336,-32.511L-9.478,-32.511C-5.854,-32.6 -2.485,-32.762 0.625,-33.01C3.254,-33.183 4.568,-33.01 4.568,-32.511L4.568,-30.551L4.697,-19.83L4.568,-19.83C4.406,-20.899 3.995,-21.85 3.333,-22.666C2.681,-23.482 1.611,-24.205 0.137,-24.821C-1.342,-25.433 -3.315,-25.928 -5.78,-26.298C-8.242,-26.663 -11.402,-26.93 -15.259,-27.101C-18.708,-27.187 -23.466,-27.218 -29.548,-27.218C-30.864,-27.218 -31.722,-27.02 -32.132,-26.605C-32.299,-26.357 -32.383,-25.741 -32.383,-24.757L-32.383,0.372C-32.383,1.351 -31.807,1.847 -30.661,1.847C-28.519,1.847 -20.764,1.836 -7.382,1.918C-4.091,1.918 -2.35,1.874 -0.239,1.918" style="fill-rule:nonzero;"/>
                </g>
                <g transform="matrix(1,0,0,1,212.156,104.305)">
                    <path d="M0,13.497L-0.394,13.497C-0.726,11.361 -2.085,9.693 -3.934,8.512C-5.78,7.311 -6.636,7.369 -8.371,7.268C-13.541,6.938 -21.173,6.81 -31.276,6.898C-32.017,6.898 -32.385,7.183 -32.385,7.76L-32.385,33.99C-32.385,37.689 -30.213,39.985 -25.857,40.887C-24.795,41.056 -21.057,41.134 -14.648,41.134C-11.694,41.134 -9.067,40.849 -6.765,40.274C-1.84,38.881 1.793,37.343 4.135,35.658C6.477,33.974 7.971,32.071 8.633,29.926L8.75,30.055L6.295,45.939L6.169,46.68L5.182,46.559C4.606,46.637 3.742,46.68 2.595,46.68C-3.648,46.351 -11.613,46.188 -21.3,46.188C-28.365,46.188 -37.848,46.232 -49.754,46.314L-49.754,46.188C-47.621,45.86 -45.959,44.776 -44.763,42.923C-43.576,41.077 -42.977,38.515 -42.977,35.226L-42.856,-20.941L-42.977,-20.941L-42.977,-21.066C-42.977,-24.35 -43.576,-26.915 -44.763,-28.761C-45.959,-30.607 -47.621,-31.696 -49.754,-32.026L-49.754,-32.145L-27.214,-32.274C-21.138,-32.274 -15.511,-32.354 -10.34,-32.511L-9.479,-32.511C-5.86,-32.6 -2.499,-32.762 0.629,-33.01C3.249,-33.183 4.564,-33.01 4.564,-32.511L4.564,-30.551L4.689,-19.83L4.564,-19.83C4.401,-20.899 3.994,-21.85 3.328,-22.666C2.677,-23.482 1.612,-24.205 0.131,-24.821C-1.347,-25.433 -3.319,-25.928 -5.78,-26.298C-8.242,-26.663 -11.407,-26.93 -15.265,-27.101C-18.714,-27.187 -23.474,-27.218 -29.553,-27.218C-30.866,-27.218 -31.725,-27.02 -32.14,-26.605C-32.307,-26.357 -32.385,-25.741 -32.385,-24.757L-32.385,0.372C-32.385,1.351 -31.813,1.847 -30.66,1.847C-28.527,1.847 -20.77,1.836 -7.385,1.918C-4.096,1.918 -2.359,1.874 -0.234,1.918" style="fill-rule:nonzero;"/>
                </g>
                <g transform="matrix(1,0,0,1,402.554,84.5989)">
                    <path d="M0,53.696C0,57.395 2.178,59.691 6.529,60.592C7.587,60.761 11.335,60.84 17.736,60.84C20.696,60.84 23.322,60.554 25.621,59.98C30.542,58.587 34.184,57.049 36.523,55.364C38.861,53.679 40.361,51.777 41.015,49.632L41.14,49.76L38.677,65.645L38.554,66.386L37.567,66.264C36.992,66.342 36.124,66.386 34.985,66.386C28.737,66.057 20.775,65.894 11.089,65.894C4.022,65.894 -5.461,65.938 -17.37,66.02L-17.37,65.894C-15.237,65.566 -13.568,64.482 -12.383,62.629C-11.19,60.784 -10.596,58.22 -10.596,54.932L-10.47,12.685L-10.596,12.685L-10.596,-1.481L-10.724,-1.481L-10.724,-1.603C-10.724,-4.889 -11.314,-7.46 -12.499,-9.303C-13.695,-11.148 -15.356,-12.242 -17.495,-12.568L-17.495,-12.69L7.02,-12.69L7.02,-12.568C4.888,-12.242 3.222,-11.028 2.026,-8.934C0.835,-6.838 0.158,-3.329 0,1.595L0,53.696Z" style="fill-rule:nonzero;"/>
                </g>
                <g transform="matrix(1,0,0,1,462.085,84.5989)">
                    <path d="M0,53.696C0,57.395 2.177,59.691 6.532,60.592C7.598,60.761 11.339,60.84 17.741,60.84C20.698,60.84 23.327,60.554 25.627,59.98C30.546,58.587 34.182,57.049 36.522,55.364C38.862,53.679 40.359,51.777 41.017,49.632L41.142,49.76L38.68,65.645L38.563,66.386L37.574,66.264C36.999,66.342 36.136,66.386 34.987,66.386C28.74,66.057 20.781,65.894 11.095,65.894C4.033,65.894 -5.458,65.938 -17.359,66.02L-17.359,65.894C-15.232,65.566 -13.568,64.482 -12.375,62.629C-11.186,60.784 -10.585,58.22 -10.585,54.932L-10.471,12.685L-10.585,12.685L-10.585,-1.481L-10.709,-1.481L-10.709,-1.603C-10.709,-4.889 -11.304,-7.46 -12.499,-9.303C-13.689,-11.148 -15.354,-12.242 -17.483,-12.568L-17.483,-12.69L7.021,-12.69L7.021,-12.568C4.888,-12.242 3.225,-11.028 2.036,-8.934C0.849,-6.838 0.171,-3.329 0,1.595L0,53.696Z" style="fill-rule:nonzero;"/>
                </g>
                <g transform="matrix(1,0,0,1,534.788,150.462)">
                    <path d="M0,-79.535C-2.213,-79.374 -4.067,-78.692 -5.545,-77.507C-7.021,-76.314 -8.337,-74.817 -9.486,-73.008L-9.486,-11.053C-9.486,-8.753 -8.868,-6.827 -7.64,-5.27C-6.815,-4.035 -5.793,-2.985 -4.56,-2.124C-3.326,-1.267 -1.89,-0.665 -0.245,-0.346C-0.088,-0.168 -0.035,-0.048 -0.121,0.031C-0.453,0.277 -1.476,0.353 -3.203,0.277C-13.792,-0.13 -21.972,-0.13 -27.706,0.277C-28.939,0.353 -29.773,0.194 -30.177,-0.218C-27.385,-0.464 -25.021,-1.471 -23.096,-3.234C-21.171,-5 -20.116,-7.068 -19.953,-9.453L-19.953,-69.192C-19.953,-70.833 -20.283,-72.27 -20.94,-73.506C-21.604,-75.146 -22.479,-76.559 -23.588,-77.749C-24.698,-78.94 -25.903,-79.535 -27.222,-79.535C-26.564,-79.698 -21.925,-79.81 -13.299,-79.847C-4.675,-79.888 -0.245,-79.782 0,-79.535" style="fill-rule:nonzero;"/>
                </g>
                <g transform="matrix(1,0,0,1,159.848,89.413)">
                    <path d="M0,11.858C-4.865,11.858 -7.295,13.984 -7.295,18.239L-7.295,48.153C-9.488,51.063 -12.188,53.956 -15.407,56.814C-18.633,59.673 -22.431,62.227 -26.811,64.476C-31.186,66.722 -36.141,68.575 -41.675,70.034C-47.206,71.498 -53.376,72.222 -60.184,72.222C-69.913,72.222 -78.821,70.609 -86.899,67.4C-94.99,64.185 -101.921,59.688 -107.695,53.917C-113.468,48.153 -117.971,41.203 -121.188,33.072C-124.413,24.941 -126.023,15.893 -126.023,5.934C-126.023,-4.027 -124.43,-13.071 -121.244,-21.204C-118.059,-29.341 -113.59,-36.317 -107.837,-42.152C-102.089,-47.98 -95.202,-52.467 -87.177,-55.625C-79.149,-58.784 -70.274,-60.364 -60.548,-60.364C-50.581,-60.364 -42.037,-59.147 -34.921,-56.708C-27.81,-54.271 -21.46,-51.295 -15.867,-47.779L-12.033,-20.242L-16.234,-20.242C-19.029,-30.574 -24.227,-38.45 -31.825,-43.861C-39.427,-49.265 -48.94,-51.971 -60.367,-51.971C-67.662,-51.971 -74.353,-50.578 -80.431,-47.779C-86.511,-44.984 -91.706,-41.062 -96.021,-36.018C-100.34,-30.971 -103.682,-24.891 -106.053,-17.786C-108.422,-10.667 -109.606,-2.732 -109.606,6.023C-109.606,14.656 -108.393,22.496 -105.955,29.55C-103.52,36.598 -100.107,42.651 -95.718,47.693C-91.332,52.743 -86.099,56.721 -80.007,59.642C-73.91,62.557 -67.271,64.081 -60.081,64.2C-52.77,64.081 -45.704,62.713 -38.886,60.09C-32.064,57.479 -26.209,54.049 -21.338,49.796L-21.338,18.427C-21.338,14.165 -23.829,12.035 -28.816,12.035L-31.55,12.035L-31.55,7.842L2.553,7.842L2.553,12.035L0,11.858Z" style="fill-rule:nonzero;"/>
                </g>
                <g transform="matrix(1,0,0,1,271.492,46.9252)">
                    <path d="M0,14.941C-0.04,10.635 -0.764,6.714 -2.65,2.83C-3.115,1.884 -5.34,2.52 -5.218,3.358C-5.485,2.952 -5.745,2.541 -6.037,2.15C-5.519,0.859 -4.62,-0.082 -3.348,-0.672C-1.884,-1.573 -3.232,-3.016 -4.5,-2.242C-6.185,-1.203 -7.564,0.064 -8.969,1.446C-9.21,1.691 -9.28,2.143 -9.058,2.415C-5.745,6.609 -3.974,11.472 -3.223,16.731C-3.046,17.957 -0.483,17.311 -0.668,16.047C-0.684,15.947 -0.717,15.848 -0.732,15.742C-0.317,15.572 0.004,15.291 0,14.941" style="fill-rule:nonzero;"/>
                </g>
                <g transform="matrix(22.3644,-20.1369,20.1369,22.3644,225.858,95.575)">
                    <path d="M0.128,-0.335C-0.057,-0.13 -0.04,0.187 0.165,0.372C0.37,0.556 0.687,0.54 0.872,0.335C1.056,0.129 1.04,-0.187 0.835,-0.372C0.629,-0.557 0.313,-0.54 0.128,-0.335ZM0.128,-0.22C0.158,-0.213 0.19,-0.214 0.225,-0.226C0.21,-0.194 0.197,-0.163 0.188,-0.133C0.177,-0.098 0.169,-0.064 0.165,-0.031C0.163,-0.014 0.162,0.003 0.161,0.02C0.155,0.106 0.174,0.191 0.213,0.275C0.189,0.265 0.167,0.251 0.149,0.235C0.036,0.133 0.029,-0.076 0.128,-0.22Z" style="fill:url(#_Linear2);fill-rule:nonzero;"/>
                </g>
                <g transform="matrix(22.3638,-20.1364,20.1364,22.3638,260.983,95.577)">
                    <path d="M0.128,-0.335C-0.057,-0.13 -0.04,0.187 0.165,0.371C0.37,0.556 0.687,0.54 0.872,0.334C1.056,0.129 1.04,-0.187 0.834,-0.372C0.629,-0.557 0.313,-0.54 0.128,-0.335ZM0.128,-0.22C0.158,-0.213 0.19,-0.214 0.225,-0.226C0.21,-0.194 0.197,-0.163 0.187,-0.133C0.177,-0.098 0.169,-0.064 0.165,-0.031C0.163,-0.014 0.162,0.003 0.161,0.02C0.155,0.106 0.174,0.191 0.213,0.275C0.189,0.265 0.167,0.251 0.149,0.235C0.036,0.133 0.029,-0.076 0.128,-0.22Z" style="fill:url(#_Linear3);fill-rule:nonzero;"/>
                </g>
                <g transform="matrix(22.3735,-20.1452,20.1452,22.3735,296.397,95.8838)">
                    <path d="M0.13,-0.335C-0.055,-0.129 -0.039,0.187 0.167,0.371C0.372,0.556 0.688,0.54 0.873,0.335C1.057,0.13 1.041,-0.187 0.836,-0.372C0.63,-0.557 0.314,-0.54 0.13,-0.335ZM0.13,-0.22C0.159,-0.213 0.191,-0.213 0.226,-0.225C0.211,-0.194 0.199,-0.163 0.189,-0.132C0.178,-0.098 0.17,-0.064 0.166,-0.031C0.164,-0.014 0.163,0.003 0.163,0.02C0.157,0.106 0.175,0.191 0.214,0.275C0.19,0.265 0.168,0.251 0.15,0.235L0.15,0.235C0.037,0.133 0.03,-0.076 0.13,-0.22Z" style="fill:url(#_Linear4);fill-rule:nonzero;"/>
                </g>
                <g transform="matrix(22.3742,-20.1458,20.1458,22.3742,276.342,128.415)">
                    <path d="M0.129,-0.335C-0.056,-0.129 -0.039,0.187 0.166,0.371C0.371,0.556 0.687,0.54 0.872,0.334C1.057,0.129 1.04,-0.187 0.835,-0.372C0.63,-0.557 0.314,-0.54 0.129,-0.335ZM0.129,-0.22C0.159,-0.213 0.19,-0.214 0.226,-0.226C0.211,-0.194 0.198,-0.163 0.189,-0.133C0.177,-0.098 0.17,-0.064 0.166,-0.031C0.163,-0.014 0.163,0.003 0.162,0.019C0.156,0.106 0.175,0.191 0.214,0.275C0.19,0.265 0.168,0.251 0.149,0.234C0.037,0.133 0.03,-0.076 0.129,-0.22Z" style="fill:url(#_Linear5);fill-rule:nonzero;"/>
                </g>
                <g transform="matrix(22.3749,-20.1464,20.1464,22.3749,240.892,128.397)">
                    <path d="M0.129,-0.334C-0.056,-0.129 -0.04,0.187 0.166,0.372C0.371,0.557 0.687,0.54 0.872,0.335C1.057,0.13 1.04,-0.187 0.835,-0.371C0.629,-0.556 0.313,-0.539 0.129,-0.334ZM0.129,-0.22C0.158,-0.213 0.19,-0.213 0.226,-0.225C0.21,-0.194 0.198,-0.163 0.188,-0.132C0.177,-0.097 0.169,-0.064 0.165,-0.031C0.163,-0.013 0.162,0.003 0.162,0.02C0.156,0.107 0.175,0.192 0.214,0.276C0.189,0.266 0.168,0.252 0.149,0.235C0.036,0.133 0.029,-0.075 0.129,-0.22Z" style="fill:url(#_Linear6);fill-rule:nonzero;"/>
                </g>
                <g transform="matrix(17.268,-24.6612,24.6612,17.268,261.19,162.903)">
                    <path d="M0.212,-0.41C-0.014,-0.251 -0.069,0.061 0.09,0.287C0.248,0.513 0.56,0.568 0.786,0.41C1.012,0.252 1.067,-0.061 0.909,-0.287C0.751,-0.513 0.438,-0.568 0.212,-0.41ZM0.187,-0.298C0.214,-0.284 0.245,-0.277 0.282,-0.281C0.261,-0.254 0.241,-0.227 0.225,-0.199C0.206,-0.168 0.191,-0.137 0.18,-0.106C0.174,-0.089 0.169,-0.073 0.165,-0.057C0.14,0.026 0.139,0.113 0.158,0.204C0.136,0.188 0.119,0.17 0.104,0.15C0.017,0.025 0.058,-0.18 0.187,-0.298Z" style="fill:url(#_Linear7);fill-rule:nonzero;"/>
                </g>
            </g>
        </g>
    </g>
    <defs>
        <linearGradient id="_Linear2" x1="0" y1="0" x2="1" y2="0" gradientUnits="userSpaceOnUse" gradientTransform="matrix(1,0,0,-1,0,-0.000560251)"><stop offset="0" style="stop-color:rgb(49,36,96);stop-opacity:1"/><stop offset="0.28" style="stop-color:rgb(49,36,96);stop-opacity:1"/><stop offset="1" style="stop-color:rgb(101,69,149);stop-opacity:1"/></linearGradient>
        <linearGradient id="_Linear3" x1="0" y1="0" x2="1" y2="0" gradientUnits="userSpaceOnUse" gradientTransform="matrix(1,-5.55112e-17,-5.55112e-17,-1,0,-0.000648621)"><stop offset="0" style="stop-color:rgb(88,57,133);stop-opacity:1"/><stop offset="0.37" style="stop-color:rgb(88,57,133);stop-opacity:1"/><stop offset="0.9" style="stop-color:rgb(126,68,148);stop-opacity:1"/><stop offset="1" style="stop-color:rgb(126,68,148);stop-opacity:1"/></linearGradient>
        <linearGradient id="_Linear4" x1="0" y1="0" x2="1" y2="0" gradientUnits="userSpaceOnUse" gradientTransform="matrix(1,0,0,-1,0,-0.000391562)"><stop offset="0" style="stop-color:rgb(100,52,139);stop-opacity:1"/><stop offset="0" style="stop-color:rgb(100,52,139);stop-opacity:1"/><stop offset="0.37" style="stop-color:rgb(136,53,139);stop-opacity:1"/><stop offset="1" style="stop-color:rgb(234,21,255);stop-opacity:1"/></linearGradient>
        <linearGradient id="_Linear5" x1="0" y1="0" x2="1" y2="0" gradientUnits="userSpaceOnUse" gradientTransform="matrix(1,5.55112e-17,5.55112e-17,-1,0,-0.000369826)"><stop offset="0" style="stop-color:rgb(88,57,133);stop-opacity:1"/><stop offset="0.37" style="stop-color:rgb(88,57,133);stop-opacity:1"/><stop offset="0.9" style="stop-color:rgb(126,68,148);stop-opacity:1"/><stop offset="1" style="stop-color:rgb(126,68,148);stop-opacity:1"/></linearGradient>
        <linearGradient id="_Linear6" x1="0" y1="0" x2="1" y2="0" gradientUnits="userSpaceOnUse" gradientTransform="matrix(1,-5.55112e-17,-5.55112e-17,-1,0,0.000427378)"><stop offset="0" style="stop-color:rgb(49,36,96);stop-opacity:1"/><stop offset="0.09" style="stop-color:rgb(49,36,96);stop-opacity:1"/><stop offset="0.98" style="stop-color:rgb(101,69,149);stop-opacity:1"/><stop offset="1" style="stop-color:rgb(101,69,149);stop-opacity:1"/></linearGradient>
        <linearGradient id="_Linear7" x1="0" y1="0" x2="1" y2="0" gradientUnits="userSpaceOnUse" gradientTransform="matrix(1,0,0,-1,0,0.000213034)"><stop offset="0" style="stop-color:rgb(46,35,89);stop-opacity:1"/><stop offset="1" style="stop-color:rgb(101,69,149);stop-opacity:1"/></linearGradient>
    </defs>
</svg>